<mxfile host="app.diagrams.net" agent="Mozilla/5.0 (Windows NT 10.0; Win64; x64) AppleWebKit/537.36 (KHTML, like Gecko) Chrome/140.0.0.0 Safari/537.36 Edg/140.0.0.0" version="28.2.3">
  <diagram name="Trang-1" id="2-qFO2ZMH76ptFSdT8Im">
    <mxGraphModel dx="778" dy="1646" grid="1" gridSize="10" guides="1" tooltips="1" connect="1" arrows="1" fold="1" page="1" pageScale="1" pageWidth="827" pageHeight="1169" math="0" shadow="0">
      <root>
        <mxCell id="0" />
        <mxCell id="1" parent="0" />
        <mxCell id="VwUhSobJyGBahtnlw72E-1" value="" style="ellipse;html=1;shape=startState;fillColor=#000000;strokeColor=#ff0000;" parent="1" vertex="1">
          <mxGeometry x="350" y="30" width="30" height="30" as="geometry" />
        </mxCell>
        <mxCell id="VwUhSobJyGBahtnlw72E-2" value="" style="edgeStyle=orthogonalEdgeStyle;html=1;verticalAlign=bottom;endArrow=open;endSize=8;strokeColor=#ff0000;rounded=0;entryX=0.502;entryY=0.767;entryDx=0;entryDy=0;entryPerimeter=0;" parent="1" source="VwUhSobJyGBahtnlw72E-1" target="VwUhSobJyGBahtnlw72E-3" edge="1">
          <mxGeometry relative="1" as="geometry">
            <mxPoint x="365" y="240" as="targetPoint" />
          </mxGeometry>
        </mxCell>
        <mxCell id="VwUhSobJyGBahtnlw72E-3" value="" style="line;strokeWidth=2;html=1;" parent="1" vertex="1">
          <mxGeometry x="300" y="160" width="130" height="10" as="geometry" />
        </mxCell>
        <mxCell id="VwUhSobJyGBahtnlw72E-5" value="Nhap ma so sach/tap chi" style="rounded=1;whiteSpace=wrap;html=1;arcSize=40;fontColor=#000000;fillColor=#ffffc0;strokeColor=#ff0000;" parent="1" vertex="1">
          <mxGeometry x="210" y="290" width="100" height="40" as="geometry" />
        </mxCell>
        <mxCell id="VwUhSobJyGBahtnlw72E-6" value="" style="edgeStyle=orthogonalEdgeStyle;html=1;verticalAlign=bottom;endArrow=open;endSize=8;strokeColor=#ff0000;rounded=0;entryX=0.5;entryY=0;entryDx=0;entryDy=0;" parent="1" source="VwUhSobJyGBahtnlw72E-5" target="VwUhSobJyGBahtnlw72E-23" edge="1">
          <mxGeometry relative="1" as="geometry">
            <mxPoint x="260" y="390" as="targetPoint" />
            <Array as="points">
              <mxPoint x="260" y="360" />
              <mxPoint x="261" y="390" />
            </Array>
          </mxGeometry>
        </mxCell>
        <mxCell id="VwUhSobJyGBahtnlw72E-7" value="Chon loai tim kiem" style="rounded=1;whiteSpace=wrap;html=1;arcSize=40;fontColor=#000000;fillColor=#ffffc0;strokeColor=#ff0000;" parent="1" vertex="1">
          <mxGeometry x="380" y="350" width="120" height="40" as="geometry" />
        </mxCell>
        <mxCell id="VwUhSobJyGBahtnlw72E-8" value="" style="edgeStyle=orthogonalEdgeStyle;html=1;verticalAlign=bottom;endArrow=open;endSize=8;strokeColor=#ff0000;rounded=0;entryX=0.5;entryY=0;entryDx=0;entryDy=0;" parent="1" source="VwUhSobJyGBahtnlw72E-7" target="VwUhSobJyGBahtnlw72E-9" edge="1">
          <mxGeometry relative="1" as="geometry">
            <mxPoint x="440" y="450" as="targetPoint" />
          </mxGeometry>
        </mxCell>
        <mxCell id="VwUhSobJyGBahtnlw72E-9" value="Nhap thong tin can truy van" style="rounded=1;whiteSpace=wrap;html=1;arcSize=40;fontColor=#000000;fillColor=#ffffc0;strokeColor=#ff0000;" parent="1" vertex="1">
          <mxGeometry x="380" y="450" width="120" height="40" as="geometry" />
        </mxCell>
        <mxCell id="VwUhSobJyGBahtnlw72E-10" value="" style="edgeStyle=orthogonalEdgeStyle;html=1;verticalAlign=bottom;endArrow=open;endSize=8;strokeColor=#ff0000;rounded=0;entryX=0.5;entryY=0;entryDx=0;entryDy=0;" parent="1" source="VwUhSobJyGBahtnlw72E-9" target="VwUhSobJyGBahtnlw72E-11" edge="1">
          <mxGeometry relative="1" as="geometry">
            <mxPoint x="440" y="560" as="targetPoint" />
          </mxGeometry>
        </mxCell>
        <mxCell id="VwUhSobJyGBahtnlw72E-11" value="Liet ke danh sach ket qua" style="rounded=1;whiteSpace=wrap;html=1;arcSize=40;fontColor=#000000;fillColor=#ffffc0;strokeColor=#ff0000;" parent="1" vertex="1">
          <mxGeometry x="380" y="570" width="120" height="40" as="geometry" />
        </mxCell>
        <mxCell id="VwUhSobJyGBahtnlw72E-12" value="" style="edgeStyle=orthogonalEdgeStyle;html=1;verticalAlign=bottom;endArrow=open;endSize=8;strokeColor=#ff0000;rounded=0;" parent="1" source="VwUhSobJyGBahtnlw72E-11" edge="1">
          <mxGeometry relative="1" as="geometry">
            <mxPoint x="440" y="670" as="targetPoint" />
          </mxGeometry>
        </mxCell>
        <mxCell id="VwUhSobJyGBahtnlw72E-13" value="Trinh bay thong tim muon/tra" style="rounded=1;whiteSpace=wrap;html=1;arcSize=40;fontColor=#000000;fillColor=#ffffc0;strokeColor=#ff0000;" parent="1" vertex="1">
          <mxGeometry x="200" y="510" width="120" height="40" as="geometry" />
        </mxCell>
        <mxCell id="VwUhSobJyGBahtnlw72E-14" value="" style="edgeStyle=orthogonalEdgeStyle;html=1;verticalAlign=bottom;endArrow=open;endSize=8;strokeColor=#ff0000;rounded=0;entryX=0.5;entryY=0;entryDx=0;entryDy=0;" parent="1" source="VwUhSobJyGBahtnlw72E-13" target="VwUhSobJyGBahtnlw72E-19" edge="1">
          <mxGeometry relative="1" as="geometry">
            <mxPoint x="260" y="610" as="targetPoint" />
            <Array as="points" />
          </mxGeometry>
        </mxCell>
        <mxCell id="VwUhSobJyGBahtnlw72E-15" value="Chon 1 thanh phan" style="rounded=1;whiteSpace=wrap;html=1;arcSize=40;fontColor=#000000;fillColor=#ffffc0;strokeColor=#ff0000;" parent="1" vertex="1">
          <mxGeometry x="380" y="670" width="120" height="40" as="geometry" />
        </mxCell>
        <mxCell id="VwUhSobJyGBahtnlw72E-16" value="" style="edgeStyle=orthogonalEdgeStyle;html=1;verticalAlign=bottom;endArrow=open;endSize=8;strokeColor=#ff0000;rounded=0;entryX=0.5;entryY=0;entryDx=0;entryDy=0;" parent="1" source="VwUhSobJyGBahtnlw72E-15" target="VwUhSobJyGBahtnlw72E-27" edge="1">
          <mxGeometry relative="1" as="geometry">
            <mxPoint x="440" y="770" as="targetPoint" />
          </mxGeometry>
        </mxCell>
        <mxCell id="VwUhSobJyGBahtnlw72E-17" value="Trinh bay thong tin sach" style="rounded=1;whiteSpace=wrap;html=1;arcSize=40;fontColor=#000000;fillColor=#ffffc0;strokeColor=#ff0000;" parent="1" vertex="1">
          <mxGeometry x="380" y="870" width="120" height="40" as="geometry" />
        </mxCell>
        <mxCell id="VwUhSobJyGBahtnlw72E-18" value="" style="edgeStyle=orthogonalEdgeStyle;html=1;verticalAlign=bottom;endArrow=open;endSize=8;strokeColor=#ff0000;rounded=0;entryX=0.5;entryY=0;entryDx=0;entryDy=0;" parent="1" source="VwUhSobJyGBahtnlw72E-17" target="VwUhSobJyGBahtnlw72E-30" edge="1">
          <mxGeometry relative="1" as="geometry">
            <mxPoint x="440" y="970" as="targetPoint" />
          </mxGeometry>
        </mxCell>
        <mxCell id="VwUhSobJyGBahtnlw72E-19" value="" style="ellipse;html=1;shape=endState;fillColor=#000000;strokeColor=#ff0000;" parent="1" vertex="1">
          <mxGeometry x="245" y="990" width="30" height="30" as="geometry" />
        </mxCell>
        <mxCell id="VwUhSobJyGBahtnlw72E-20" value="" style="endArrow=open;endFill=1;endSize=12;html=1;rounded=0;entryX=0.115;entryY=0.06;entryDx=0;entryDy=0;entryPerimeter=0;exitX=0.51;exitY=0.777;exitDx=0;exitDy=0;exitPerimeter=0;" parent="1" source="VwUhSobJyGBahtnlw72E-3" target="VwUhSobJyGBahtnlw72E-45" edge="1">
          <mxGeometry width="160" relative="1" as="geometry">
            <mxPoint x="370" y="235" as="sourcePoint" />
            <mxPoint x="740" y="340" as="targetPoint" />
          </mxGeometry>
        </mxCell>
        <mxCell id="VwUhSobJyGBahtnlw72E-21" value="" style="endArrow=open;endFill=1;endSize=12;html=1;rounded=0;exitX=0.508;exitY=0.633;exitDx=0;exitDy=0;exitPerimeter=0;entryX=0.5;entryY=0;entryDx=0;entryDy=0;" parent="1" source="VwUhSobJyGBahtnlw72E-3" target="VwUhSobJyGBahtnlw72E-5" edge="1">
          <mxGeometry width="160" relative="1" as="geometry">
            <mxPoint x="280" y="270" as="sourcePoint" />
            <mxPoint x="440" y="270" as="targetPoint" />
          </mxGeometry>
        </mxCell>
        <mxCell id="VwUhSobJyGBahtnlw72E-22" value="" style="endArrow=open;endFill=1;endSize=12;html=1;rounded=0;entryX=0.5;entryY=0;entryDx=0;entryDy=0;exitX=0.518;exitY=0.469;exitDx=0;exitDy=0;exitPerimeter=0;" parent="1" source="VwUhSobJyGBahtnlw72E-3" target="VwUhSobJyGBahtnlw72E-33" edge="1">
          <mxGeometry width="160" relative="1" as="geometry">
            <mxPoint x="370" y="236" as="sourcePoint" />
            <mxPoint x="410" y="300" as="targetPoint" />
          </mxGeometry>
        </mxCell>
        <mxCell id="VwUhSobJyGBahtnlw72E-23" value="" style="rhombus;whiteSpace=wrap;html=1;fontColor=#000000;fillColor=#ffffc0;strokeColor=#ff0000;" parent="1" vertex="1">
          <mxGeometry x="220" y="400" width="80" height="40" as="geometry" />
        </mxCell>
        <mxCell id="VwUhSobJyGBahtnlw72E-25" value="" style="edgeStyle=orthogonalEdgeStyle;html=1;align=left;verticalAlign=top;endArrow=open;endSize=8;strokeColor=#ff0000;rounded=0;entryX=0.5;entryY=0;entryDx=0;entryDy=0;" parent="1" source="VwUhSobJyGBahtnlw72E-23" target="VwUhSobJyGBahtnlw72E-13" edge="1">
          <mxGeometry x="-1" relative="1" as="geometry">
            <mxPoint x="260" y="490" as="targetPoint" />
          </mxGeometry>
        </mxCell>
        <mxCell id="VwUhSobJyGBahtnlw72E-27" value="" style="rhombus;whiteSpace=wrap;html=1;fontColor=#000000;fillColor=#ffffc0;strokeColor=#ff0000;" parent="1" vertex="1">
          <mxGeometry x="400" y="770" width="80" height="40" as="geometry" />
        </mxCell>
        <mxCell id="VwUhSobJyGBahtnlw72E-28" value="" style="edgeStyle=orthogonalEdgeStyle;html=1;align=left;verticalAlign=bottom;endArrow=open;endSize=8;strokeColor=#ff0000;rounded=0;exitX=0;exitY=0.5;exitDx=0;exitDy=0;entryX=1;entryY=0.5;entryDx=0;entryDy=0;" parent="1" source="VwUhSobJyGBahtnlw72E-27" target="VwUhSobJyGBahtnlw72E-23" edge="1">
          <mxGeometry x="-1" relative="1" as="geometry">
            <mxPoint x="580" y="730" as="targetPoint" />
          </mxGeometry>
        </mxCell>
        <mxCell id="VwUhSobJyGBahtnlw72E-29" value="" style="edgeStyle=orthogonalEdgeStyle;html=1;align=left;verticalAlign=top;endArrow=open;endSize=8;strokeColor=#ff0000;rounded=0;entryX=0.5;entryY=0;entryDx=0;entryDy=0;" parent="1" source="VwUhSobJyGBahtnlw72E-27" target="VwUhSobJyGBahtnlw72E-17" edge="1">
          <mxGeometry x="1" y="67" relative="1" as="geometry">
            <mxPoint x="450" y="880" as="targetPoint" />
            <mxPoint x="-37" y="60" as="offset" />
          </mxGeometry>
        </mxCell>
        <mxCell id="VwUhSobJyGBahtnlw72E-30" value="Condition" style="rhombus;whiteSpace=wrap;html=1;fontColor=#000000;fillColor=#ffffc0;strokeColor=#ff0000;" parent="1" vertex="1">
          <mxGeometry x="400" y="985" width="80" height="40" as="geometry" />
        </mxCell>
        <mxCell id="VwUhSobJyGBahtnlw72E-31" value="[Tim kiem lan nua]" style="edgeStyle=orthogonalEdgeStyle;html=1;align=left;verticalAlign=bottom;endArrow=open;endSize=8;strokeColor=#ff0000;rounded=0;entryX=1;entryY=0.5;entryDx=0;entryDy=0;" parent="1" source="VwUhSobJyGBahtnlw72E-30" target="VwUhSobJyGBahtnlw72E-33" edge="1">
          <mxGeometry x="-0.9065" y="-25" relative="1" as="geometry">
            <mxPoint x="610" y="590" as="targetPoint" />
            <Array as="points">
              <mxPoint x="550" y="1005" />
              <mxPoint x="550" y="295" />
            </Array>
            <mxPoint as="offset" />
          </mxGeometry>
        </mxCell>
        <mxCell id="VwUhSobJyGBahtnlw72E-32" value="" style="edgeStyle=orthogonalEdgeStyle;html=1;align=left;verticalAlign=top;endArrow=open;endSize=8;strokeColor=#ff0000;rounded=0;exitX=0;exitY=0.5;exitDx=0;exitDy=0;entryX=1;entryY=0.5;entryDx=0;entryDy=0;" parent="1" source="VwUhSobJyGBahtnlw72E-30" target="VwUhSobJyGBahtnlw72E-19" edge="1">
          <mxGeometry x="-1" relative="1" as="geometry">
            <mxPoint x="440" y="1030" as="targetPoint" />
          </mxGeometry>
        </mxCell>
        <mxCell id="VwUhSobJyGBahtnlw72E-33" value="" style="rhombus;whiteSpace=wrap;html=1;fontColor=#000000;fillColor=#ffffc0;strokeColor=#ff0000;" parent="1" vertex="1">
          <mxGeometry x="410" y="280" width="60" height="30" as="geometry" />
        </mxCell>
        <mxCell id="VwUhSobJyGBahtnlw72E-35" value="" style="edgeStyle=orthogonalEdgeStyle;html=1;align=left;verticalAlign=top;endArrow=open;endSize=8;strokeColor=#ff0000;rounded=0;entryX=0.5;entryY=0;entryDx=0;entryDy=0;" parent="1" source="VwUhSobJyGBahtnlw72E-33" target="VwUhSobJyGBahtnlw72E-7" edge="1">
          <mxGeometry x="-0.999" y="-10" relative="1" as="geometry">
            <mxPoint x="470" y="370" as="targetPoint" />
            <mxPoint as="offset" />
          </mxGeometry>
        </mxCell>
        <mxCell id="VwUhSobJyGBahtnlw72E-36" value="[Xem lich su muon tra]" style="text;html=1;align=center;verticalAlign=middle;resizable=0;points=[];autosize=1;strokeColor=none;fillColor=none;" parent="1" vertex="1">
          <mxGeometry x="250" y="820" width="140" height="30" as="geometry" />
        </mxCell>
        <mxCell id="VwUhSobJyGBahtnlw72E-40" value="" style="edgeStyle=orthogonalEdgeStyle;html=1;verticalAlign=bottom;endArrow=open;endSize=8;strokeColor=#ff0000;rounded=0;exitX=1;exitY=0.5;exitDx=0;exitDy=0;entryX=0;entryY=0.5;entryDx=0;entryDy=0;" parent="1" source="VwUhSobJyGBahtnlw72E-27" target="VwUhSobJyGBahtnlw72E-42" edge="1">
          <mxGeometry relative="1" as="geometry">
            <mxPoint x="690" y="790" as="targetPoint" />
            <mxPoint x="530" y="770" as="sourcePoint" />
          </mxGeometry>
        </mxCell>
        <mxCell id="VwUhSobJyGBahtnlw72E-55" value="" style="swimlane;childLayout=stackLayout;resizeParent=1;resizeParentMax=0;startSize=20;html=1;" parent="1" vertex="1">
          <mxGeometry x="30" y="-21" width="1200" height="1151" as="geometry" />
        </mxCell>
        <mxCell id="VwUhSobJyGBahtnlw72E-56" value="Doc gia" style="swimlane;startSize=20;html=1;" parent="VwUhSobJyGBahtnlw72E-55" vertex="1">
          <mxGeometry y="20" width="590" height="1131" as="geometry" />
        </mxCell>
        <mxCell id="VwUhSobJyGBahtnlw72E-57" value="NV tiep tan" style="swimlane;startSize=20;html=1;" parent="VwUhSobJyGBahtnlw72E-55" vertex="1">
          <mxGeometry x="590" y="20" width="310" height="1131" as="geometry" />
        </mxCell>
        <mxCell id="VwUhSobJyGBahtnlw72E-41" value="[Muon sach]" style="text;html=1;align=center;verticalAlign=middle;resizable=0;points=[];autosize=1;strokeColor=none;fillColor=none;" parent="VwUhSobJyGBahtnlw72E-57" vertex="1">
          <mxGeometry x="79.99999999999955" y="791" width="90" height="30" as="geometry" />
        </mxCell>
        <mxCell id="VwUhSobJyGBahtnlw72E-49" value="Xem them chi tiet trong AD cua &quot;NV tiep tan&quot;" style="shape=note;size=20;whiteSpace=wrap;html=1;" parent="VwUhSobJyGBahtnlw72E-57" vertex="1">
          <mxGeometry x="40" y="131" width="235" height="100" as="geometry" />
        </mxCell>
        <mxCell id="VwUhSobJyGBahtnlw72E-45" value="Dang ky thanh vien" style="rounded=1;whiteSpace=wrap;html=1;arcSize=40;fontColor=#000000;fillColor=#ffffc0;strokeColor=#ff0000;" parent="VwUhSobJyGBahtnlw72E-57" vertex="1">
          <mxGeometry x="80" y="311" width="120" height="40" as="geometry" />
        </mxCell>
        <mxCell id="VwUhSobJyGBahtnlw72E-50" value="" style="endArrow=none;dashed=1;html=1;dashPattern=8 8;strokeWidth=2;rounded=0;entryX=0.5;entryY=1;entryDx=0;entryDy=0;entryPerimeter=0;exitX=0.5;exitY=0;exitDx=0;exitDy=0;" parent="VwUhSobJyGBahtnlw72E-57" source="VwUhSobJyGBahtnlw72E-45" target="VwUhSobJyGBahtnlw72E-49" edge="1">
          <mxGeometry width="50" height="50" relative="1" as="geometry">
            <mxPoint x="120" y="401" as="sourcePoint" />
            <mxPoint x="170" y="351" as="targetPoint" />
          </mxGeometry>
        </mxCell>
        <mxCell id="VwUhSobJyGBahtnlw72E-47" value="" style="ellipse;html=1;shape=endState;fillColor=#000000;strokeColor=#ff0000;" parent="VwUhSobJyGBahtnlw72E-57" vertex="1">
          <mxGeometry x="125" y="431" width="30" height="30" as="geometry" />
        </mxCell>
        <mxCell id="VwUhSobJyGBahtnlw72E-46" value="" style="edgeStyle=orthogonalEdgeStyle;html=1;verticalAlign=bottom;endArrow=open;endSize=8;strokeColor=#ff0000;rounded=0;entryX=0.5;entryY=0;entryDx=0;entryDy=0;" parent="VwUhSobJyGBahtnlw72E-57" source="VwUhSobJyGBahtnlw72E-45" target="VwUhSobJyGBahtnlw72E-47" edge="1">
          <mxGeometry relative="1" as="geometry">
            <mxPoint x="130" y="431" as="targetPoint" />
          </mxGeometry>
        </mxCell>
        <mxCell id="VwUhSobJyGBahtnlw72E-58" value="Thanh vien" style="swimlane;startSize=20;html=1;" parent="VwUhSobJyGBahtnlw72E-55" vertex="1">
          <mxGeometry x="900" y="20" width="300" height="1131" as="geometry" />
        </mxCell>
        <mxCell id="VwUhSobJyGBahtnlw72E-42" value="Activity" style="rounded=1;whiteSpace=wrap;html=1;arcSize=40;fontColor=#000000;fillColor=#ffffc0;strokeColor=#ff0000;" parent="VwUhSobJyGBahtnlw72E-58" vertex="1">
          <mxGeometry x="97.5" y="771" width="120" height="40" as="geometry" />
        </mxCell>
        <mxCell id="VwUhSobJyGBahtnlw72E-43" value="" style="edgeStyle=orthogonalEdgeStyle;html=1;verticalAlign=bottom;endArrow=open;endSize=8;strokeColor=#ff0000;rounded=0;entryX=0.5;entryY=0;entryDx=0;entryDy=0;" parent="VwUhSobJyGBahtnlw72E-58" source="VwUhSobJyGBahtnlw72E-42" target="VwUhSobJyGBahtnlw72E-44" edge="1">
          <mxGeometry relative="1" as="geometry">
            <mxPoint x="157.5" y="871" as="targetPoint" />
          </mxGeometry>
        </mxCell>
        <mxCell id="VwUhSobJyGBahtnlw72E-44" value="" style="ellipse;html=1;shape=endState;fillColor=#000000;strokeColor=#ff0000;" parent="VwUhSobJyGBahtnlw72E-58" vertex="1">
          <mxGeometry x="142.5" y="901" width="30" height="30" as="geometry" />
        </mxCell>
        <mxCell id="VwUhSobJyGBahtnlw72E-53" value="Xem them chi tiet trong AD cua &quot;NV tiep tan&quot;" style="shape=note;size=20;whiteSpace=wrap;html=1;" parent="VwUhSobJyGBahtnlw72E-58" vertex="1">
          <mxGeometry x="40" y="551" width="235" height="100" as="geometry" />
        </mxCell>
        <mxCell id="VwUhSobJyGBahtnlw72E-54" value="" style="endArrow=none;dashed=1;html=1;dashPattern=8 8;strokeWidth=2;rounded=0;entryX=0.5;entryY=1;entryDx=0;entryDy=0;entryPerimeter=0;exitX=0.5;exitY=0;exitDx=0;exitDy=0;" parent="VwUhSobJyGBahtnlw72E-58" source="VwUhSobJyGBahtnlw72E-42" target="VwUhSobJyGBahtnlw72E-53" edge="1">
          <mxGeometry width="50" height="50" relative="1" as="geometry">
            <mxPoint x="195" y="681" as="sourcePoint" />
            <mxPoint x="235" y="721" as="targetPoint" />
          </mxGeometry>
        </mxCell>
      </root>
    </mxGraphModel>
  </diagram>
</mxfile>
